<?xml version="1.0" encoding="UTF-8"?> <svg xmlns="http://www.w3.org/2000/svg" width="1533" height="565" viewBox="0 0 1533 565" fill="none"><path d="M1468.29 29.8672H281.642C245.937 29.8672 216.906 58.879 216.906 94.5349V469.51C216.906 505.144 245.937 534.135 281.642 534.135H1468.29C1503.97 534.135 1533 505.144 1533 469.51V94.5349C1533 58.879 1503.97 29.8672 1468.29 29.8672ZM1512.85 469.51C1512.85 494.035 1492.84 514.01 1468.31 514.01H281.642C257.083 514.01 237.059 494.035 237.059 469.51V94.5349C237.059 69.9667 257.083 49.9917 281.642 49.9917H1468.29C1492.84 49.9917 1512.83 69.9667 1512.83 94.5349V469.51H1512.85Z" fill="#1D1D1B"></path><path d="M1067.46 396.102H1019.82V424.088H1066.95C1076.49 424.088 1082.43 420.114 1082.43 408.236C1082.43 401.336 1076.77 396.102 1067.48 396.102H1067.46Z" fill="#1D1D1B"></path><path d="M1108.15 231.347C1108.15 215.217 1108.15 199.024 1108.11 182.937C1108.37 178.023 1105.41 173.451 1101.29 172.255C1095.38 170.46 1088.94 170.717 1083.7 172.896C1079.72 174.69 1078.35 179.369 1078.44 182.873C1078.35 197.742 1078.35 212.504 1078.35 227.224C1078.35 238.205 1078.35 249.207 1078.35 260.188H1108.15C1108.11 250.574 1108.15 241.003 1108.15 231.368V231.347Z" fill="#1D1D1B"></path><path d="M885.34 74.9023H281.643C270.797 74.9023 262.004 83.6614 262.004 94.5355V469.51C262.004 480.384 270.797 489.165 281.643 489.165H1468.29C1479.15 489.165 1487.92 480.384 1487.92 469.51V94.5355C1487.92 83.6828 1479.15 74.9023 1468.29 74.9023H885.34ZM668.947 396.105H612.126V420.117H667.492V427.488H612.126V454.043H668.947V461.349H604.575V388.82H668.947V396.126V396.105ZM675.044 168.219C675.044 169.992 673.568 171.53 671.835 171.573H641.285C641.371 198.277 641.2 317.444 641.285 350.386C641.328 351.22 641.029 352.096 640.387 352.694C639.938 353.078 639.446 353.399 638.868 353.527C638.633 353.612 607.677 353.548 607.441 353.527C606.842 353.399 606.329 352.95 605.901 352.523C605.281 351.946 605.045 351.113 605.067 350.258C605.281 319.901 604.895 200.841 605.067 171.573H574.945C574.132 171.616 573.233 171.338 572.634 170.761C572.014 170.099 571.65 169.266 571.65 168.432V145.979C571.65 145.103 571.993 144.249 572.592 143.651C573.041 143.181 573.661 142.967 574.303 142.839C574.496 142.796 575.309 142.732 575.309 142.732H668.647C670.894 142.732 671.942 143.052 672.776 143.373C674.06 143.907 675.044 145.061 675.023 146.556V168.197L675.044 168.219ZM718.986 354.51C704.759 352.758 693.121 346.797 686.147 337.825C680.585 330.817 677.74 321.332 677.782 309.71C677.782 286.958 677.804 206.951 677.782 189.689C677.782 184.754 677.996 179.05 679.472 173.367C681.762 163.818 687.901 155.294 696.266 149.825C704.674 144.227 715.435 141.279 728.271 141.044H732.25C748.551 141.728 761.066 146.492 769.602 155.059C777.069 162.216 781.176 172.983 781.112 185.288C781.155 205.883 781.112 284.394 781.112 303.066C781.155 310.052 781.24 317.935 778.566 325.498C775.336 335.838 767.228 344.682 756.317 349.681C748.637 353.27 739.588 355.065 729.469 355.065C726.153 355.065 722.601 354.873 718.986 354.467V354.51ZM817.866 461.328H806.976L749.407 394.438H745.214V461.328H737.684V388.798H754.435L810.292 453.786V388.798H817.866V461.328ZM863.669 352.715C863.005 352.096 862.663 351.22 862.706 350.322C863.177 326.63 861.615 308.834 857.785 292.705C855.133 282.706 850.833 270.251 841.163 263.031C839.43 261.77 838.596 261.386 835.9 261.514C835.836 290.889 835.943 350.109 835.943 350.301C835.943 352.138 834.51 353.441 832.691 353.527H802.826C802.035 353.612 801.136 353.121 800.494 352.523C799.895 351.946 799.66 351.113 799.66 350.258C799.831 317.38 799.467 181.229 799.66 146.001C799.681 144.227 801.307 142.689 803.04 142.796C807.447 142.839 811.854 142.839 816.218 142.839H838.467C849.956 142.924 863.305 143.416 875.799 147.923C883.778 150.765 890.367 156.255 894.368 163.433C901.064 175.076 902.305 188.92 902.604 200.948C902.711 212.313 901.92 226.947 895.331 239.509C891.245 247.307 884.377 253.31 876.376 256.237C882.195 262.817 886.731 271.597 890.218 282.771C896.871 304.583 897.791 327.186 898.176 350.344C898.219 351.22 897.855 352.117 897.235 352.694C896.614 353.313 895.716 353.655 894.839 353.634H865.915C865.059 353.634 864.246 353.313 863.647 352.715H863.669ZM946.696 396.105H889.854V420.117H945.22V427.488H889.854V454.043H946.696V461.349H882.302V388.82H946.696V396.126V396.105ZM990.295 353.292C979.556 351.497 972.967 341.585 971.17 332.59C963.661 297.896 956.344 262.518 949.327 228.272C948.536 224.341 947.787 220.41 946.974 216.436C946.974 226.905 946.803 316.098 946.974 350.258C946.974 351.177 946.653 352.031 946.011 352.608C945.37 353.228 944.514 353.612 943.615 353.57H918.992C917.216 353.548 915.783 352.117 915.783 350.322C915.783 323.96 915.783 297.597 915.783 271.191C915.783 230.601 915.783 189.967 915.825 149.291C915.825 148.116 916.467 147.069 917.494 146.471C923.869 142.881 931.058 142.433 936.577 142.433C938.01 142.433 939.422 142.476 940.856 142.518H941.134C947.381 142.518 952.729 144.227 956.494 147.496C960.452 150.786 963.147 155.871 964.517 162.557C972.218 199.645 980.668 237.159 990.616 284.202C990.616 270.529 990.488 179.285 990.616 146.043C990.616 144.27 992.135 142.839 993.911 142.839H1018.04C1019.82 142.839 1021.29 144.27 1021.29 146.043C1021.42 182.96 1021.38 219.769 1021.36 256.664C1021.36 286.509 1021.36 316.333 1021.42 346.178C1021.42 347.353 1020.78 348.421 1019.69 348.976C1013.76 352.266 1006.79 353.976 998.981 353.976C996.136 353.976 993.226 353.741 990.295 353.313V353.292ZM1088.81 444.322V461.328H1081.28V443.446C1081.28 434.26 1077.52 431.419 1069.9 431.419H1019.84V461.328H1012.33V388.798H1064.64C1083.08 388.798 1089.99 397.579 1089.99 409.585C1089.99 420.502 1084.75 424.091 1079.72 427.039C1084.43 428.086 1088.83 433.427 1088.83 444.322H1088.81ZM1340.42 426.761V461.328H1332.89V426.633L1294.68 388.798H1304.61L1336.63 420.78L1368.68 388.798H1378.6L1340.4 426.761H1340.42ZM1286.7 304.198V254.378C1286.7 231.84 1286.7 209.322 1286.74 186.762C1286.7 174.478 1290.59 163.583 1297.8 156.063C1306.6 146.62 1320.59 141.279 1337.19 141.087H1341.17C1357.47 141.771 1369.98 146.535 1378.56 155.144C1385.96 162.258 1390.07 172.983 1390.01 185.288C1390.05 206.182 1390.05 227.118 1390.05 247.991C1390.05 267.474 1390.01 286.979 1390.05 306.463C1390.09 314.752 1389.22 320.905 1387.21 326.459C1383.68 336.692 1375.35 345.366 1364.4 350.13C1356.83 353.463 1348.08 355.151 1338.47 355.151C1334.47 355.151 1330.21 354.83 1325.91 354.232C1311.28 352.117 1299.26 344.981 1292.97 334.77C1286.83 325.37 1286.53 314.004 1286.7 304.198ZM1166.88 265.188V146.043C1166.88 145.167 1167.24 144.334 1167.84 143.736C1168.46 143.138 1169.25 142.796 1170.11 142.796C1172.29 142.839 1174.41 142.839 1176.52 142.839L1196.61 142.775C1204.23 142.775 1210.07 142.839 1215.59 142.967C1228.53 143.672 1244.77 145.915 1256.34 156.853C1267.08 167.001 1269.46 182.255 1269.52 193.193C1269.61 230.579 1269.56 267.923 1269.52 305.245C1269.65 319.131 1265.16 330.988 1256.83 338.722C1247.91 347.139 1236.21 350.664 1225.79 352.16C1221.77 352.758 1203.63 353.484 1196.4 353.484C1196.36 353.484 1175.63 353.42 1170.08 353.463C1169.23 353.42 1168.42 353.142 1167.82 352.544C1167.18 351.925 1166.85 351.091 1166.85 350.237V265.21L1166.88 265.188ZM1152.97 414.499C1152.97 395.25 1160.27 387.944 1179.75 387.944H1211.8C1229.34 387.944 1238.05 395.25 1238.05 408.688H1230.18C1230.18 400.506 1225.9 395.25 1211.69 395.25H1179.67C1164.61 395.25 1160.52 399.886 1160.52 414.499V436.461C1160.52 450.048 1165.44 454.021 1179.67 454.021H1211.69C1225.39 454.021 1230.18 451.415 1230.18 436.546V434.132H1194.54V426.825H1238.05V432.465C1238.05 454.983 1232.72 461.328 1211.8 461.328H1179.75C1159.45 461.328 1152.97 454.021 1152.97 436.482V414.52V414.499ZM1081 143.864C1096.51 141.429 1109.67 143.159 1119.79 148.991C1129.93 154.354 1137.57 164.544 1140.82 176.871C1143.32 185.587 1143.28 194.646 1143.21 203.426C1143.19 205.626 1143.19 207.848 1143.21 210.027C1143.28 228.037 1143.21 246.025 1143.21 263.949C1143.19 292.299 1143.15 321.546 1143.34 350.322C1143.34 351.241 1143 352.031 1142.38 352.651C1141.74 353.313 1140.9 353.57 1140.03 353.57C1135.11 353.463 1115.75 353.42 1111.36 353.57H1111.27C1110.4 353.57 1109.58 353.335 1108.99 352.736C1108.37 352.117 1108.04 351.262 1108.04 350.408C1108.17 336.286 1108.04 294.051 1108.04 287.022C1108.04 287.022 1081.97 286.979 1078.44 286.979V350.28C1078.44 352.138 1077.13 353.506 1075.25 353.548H1071.93C1067.93 353.548 1050.56 353.42 1046.56 353.57C1045.64 353.612 1044.81 353.335 1044.19 352.736C1043.56 352.117 1043.2 351.262 1043.2 350.408C1043.29 320.905 1043.29 291.466 1043.27 261.962C1043.27 240.129 1043.24 218.252 1043.27 196.397C1043.48 180.46 1046.67 168.838 1053.32 159.844C1059.31 151.555 1069.41 145.766 1080.96 143.886L1081 143.864Z" fill="#1D1D1B"></path><path d="M1328.12 323.381C1334.64 327.696 1343.76 326.948 1349.92 322.355C1352.25 320.71 1353.62 318.211 1353.49 315.796C1353.53 289.006 1353.53 262.323 1353.53 235.64C1353.53 218.036 1353.49 200.433 1353.53 182.808C1353.66 179.454 1352.68 176.548 1350.82 174.668C1347.69 171.656 1343.11 169.883 1338.15 169.883C1336.01 169.883 1333.91 170.225 1331.9 170.887C1327.37 172.297 1322.64 176.271 1322.94 181.526V199.151C1322.9 237.99 1322.88 276.786 1322.96 315.626C1322.81 319.193 1325.51 321.928 1328.1 323.359L1328.12 323.381Z" fill="#1D1D1B"></path><path d="M1204.14 324.664H1208.1C1214.47 324.664 1220.61 324.386 1225.71 321.225C1232.77 317.016 1233.13 307.274 1233.09 304.369C1233.13 276.639 1233.09 248.951 1233.09 221.286V189.753C1233.28 183.515 1231.05 178.323 1227.12 175.824C1220.83 171.679 1212.81 171.636 1204.98 171.615C1204.33 171.615 1203.67 171.615 1203.01 171.594C1203.14 222.418 1203.14 273.861 1203.01 324.664H1204.16H1204.14Z" fill="#1D1D1B"></path><path d="M855.623 170.994C850.382 169.541 845.675 169.199 840.412 169.199C838.979 169.199 837.567 169.242 836.134 169.242H835.855V232.713C843.365 232.521 851.109 232.35 858.169 230.192C861.656 229.167 863.324 225.556 863.859 223.997C867.881 213.315 867.881 188.961 864.993 179.304C863.389 173.942 859.26 171.998 855.623 171.015V170.994Z" fill="#1D1D1B"></path><path d="M744.635 182.808C744.741 179.475 743.779 176.591 741.96 174.733C738.837 171.678 734.216 169.926 729.274 169.926C727.113 169.926 725.017 170.268 723.006 170.93C718.47 172.34 713.764 176.314 714.085 181.548C714.085 181.548 713.999 276.167 714.085 315.69C713.935 319.023 716.331 321.608 718.599 322.975C721.679 325.154 725.209 326.286 729.082 326.286C734.237 326.286 739.308 324.257 742.73 320.86C744.378 319.129 744.677 316.566 744.656 314.664C744.656 314.664 744.634 212.098 744.656 182.808H744.635Z" fill="#1D1D1B"></path><path d="M1021.42 346.155C1021.34 316.31 1021.36 286.486 1021.36 256.641C1021.38 219.747 1021.42 182.937 1021.29 146.021C1021.29 144.247 1019.82 142.816 1018.04 142.816H993.91C992.134 142.816 990.615 144.247 990.615 146.021C990.487 179.262 990.615 270.507 990.615 284.179C980.667 237.137 972.217 199.622 964.515 162.535C963.146 155.848 960.45 150.785 956.493 147.473C952.727 144.205 947.379 142.496 941.132 142.496H940.854C939.421 142.453 938.009 142.41 936.576 142.41C931.056 142.41 923.889 142.859 917.493 146.448C916.466 147.046 915.824 148.093 915.824 149.268C915.781 189.944 915.781 230.599 915.781 271.169C915.781 297.574 915.781 323.937 915.781 350.3C915.781 352.094 917.193 353.526 918.99 353.547H943.614C944.512 353.59 945.368 353.226 946.01 352.586C946.652 351.987 946.973 351.154 946.973 350.236C946.801 316.075 946.973 226.882 946.973 216.414C947.786 220.387 948.534 224.297 949.326 228.249C956.364 262.495 963.659 297.873 971.168 332.568C972.965 341.562 979.555 351.475 990.294 353.269C993.204 353.697 996.134 353.931 998.98 353.931C1006.79 353.931 1013.76 352.222 1019.69 348.932C1020.78 348.377 1021.42 347.309 1021.42 346.134V346.155Z" fill="#FDFAF3"></path><path d="M672.817 143.391C671.983 143.049 670.935 142.75 668.689 142.75H575.35C575.35 142.75 574.537 142.814 574.344 142.857C573.681 142.985 573.082 143.199 572.633 143.669C572.034 144.267 571.691 145.1 571.691 145.997V168.45C571.691 169.262 572.076 170.095 572.675 170.779C573.274 171.356 574.194 171.634 574.986 171.591H605.108C604.937 200.838 605.322 319.919 605.108 350.276C605.108 351.131 605.322 351.964 605.942 352.541C606.348 352.99 606.883 353.417 607.482 353.545C607.718 353.566 638.674 353.63 638.909 353.545C639.465 353.417 639.957 353.075 640.428 352.712C641.048 352.135 641.348 351.238 641.327 350.405C641.241 317.462 641.412 198.295 641.327 171.591H671.876C673.63 171.548 675.085 170.01 675.085 168.237V146.595C675.128 145.121 674.122 143.946 672.839 143.412L672.817 143.391Z" fill="#FDFAF3"></path><path d="M778.565 325.54C781.24 317.955 781.154 310.072 781.111 303.108C781.111 284.436 781.154 205.925 781.111 185.33C781.154 173.025 777.068 162.257 769.602 155.1C761.066 146.534 748.551 141.77 732.249 141.086H728.27C715.434 141.321 704.673 144.269 696.265 149.866C687.901 155.314 681.782 163.838 679.472 173.409C677.996 179.092 677.782 184.817 677.782 189.731C677.803 206.993 677.782 287 677.782 309.752C677.739 321.374 680.563 330.838 686.147 337.866C693.121 346.86 704.759 352.821 718.985 354.551C722.601 354.936 726.131 355.15 729.468 355.15C739.587 355.15 748.636 353.355 756.316 349.766C767.248 344.767 775.356 335.922 778.565 325.582V325.54ZM744.636 314.665C744.679 316.567 744.379 319.13 742.71 320.861C739.309 324.258 734.217 326.287 729.061 326.287C725.189 326.287 721.659 325.176 718.579 322.976C716.311 321.609 713.915 319.024 714.065 315.691C713.979 276.168 714.065 181.549 714.065 181.549C713.744 176.315 718.472 172.341 722.986 170.931C724.997 170.269 727.115 169.927 729.254 169.927C734.196 169.927 738.817 171.7 741.94 174.734C743.759 176.592 744.721 179.498 744.614 182.809C744.593 212.099 744.614 314.665 744.614 314.665H744.636Z" fill="#FDFAF3"></path><path d="M1325.91 354.231C1330.21 354.829 1334.47 355.15 1338.47 355.15C1348.08 355.15 1356.83 353.462 1364.4 350.129C1375.35 345.365 1383.68 336.691 1387.21 326.458C1389.22 320.904 1390.09 314.772 1390.05 306.462C1390.01 286.957 1390.05 267.473 1390.05 247.99C1390.05 227.117 1390.05 206.181 1390.01 185.287C1390.07 172.982 1385.94 162.257 1378.56 155.143C1370.01 146.534 1357.47 141.77 1341.17 141.086H1337.19C1320.59 141.278 1306.6 146.619 1297.8 156.062C1290.59 163.582 1286.7 174.477 1286.74 186.761C1286.7 209.321 1286.7 231.839 1286.7 254.377V304.197C1286.53 314.025 1286.83 325.369 1292.97 334.769C1299.26 344.98 1311.28 352.116 1325.91 354.231ZM1322.94 199.195V181.57C1322.64 176.293 1327.35 172.32 1331.9 170.931C1333.92 170.269 1336.01 169.927 1338.15 169.927C1343.11 169.927 1347.71 171.679 1350.82 174.712C1352.68 176.592 1353.66 179.498 1353.53 182.852C1353.49 200.455 1353.53 218.08 1353.53 235.684C1353.53 262.367 1353.53 289.05 1353.49 315.84C1353.62 318.255 1352.25 320.754 1349.92 322.399C1343.76 326.992 1334.64 327.74 1328.12 323.425C1325.53 321.993 1322.81 319.259 1322.98 315.691C1322.9 276.873 1322.92 238.077 1322.96 199.216L1322.94 199.195Z" fill="#FDFAF3"></path><path d="M1053.36 159.823C1046.71 168.817 1043.52 180.439 1043.31 196.376C1043.28 218.231 1043.31 240.107 1043.31 261.941C1043.31 291.444 1043.31 320.905 1043.24 350.387C1043.24 351.241 1043.63 352.096 1044.23 352.715C1044.87 353.313 1045.7 353.612 1046.6 353.548C1050.6 353.399 1067.97 353.527 1071.97 353.548H1075.27C1075.27 353.548 1075.27 353.527 1075.29 353.527C1077.17 353.463 1078.48 352.096 1078.48 350.258V286.958C1082.01 286.958 1108.09 287.001 1108.09 287.001C1108.09 294.029 1108.21 336.265 1108.09 350.387C1108.09 351.241 1108.41 352.096 1109.03 352.715C1109.6 353.313 1110.44 353.548 1111.32 353.548H1111.4C1115.79 353.399 1135.15 353.442 1140.07 353.548C1140.95 353.548 1141.78 353.271 1142.42 352.63C1143.04 352.01 1143.38 351.22 1143.38 350.301C1143.19 321.524 1143.23 292.277 1143.26 263.928C1143.26 246.004 1143.32 228.016 1143.26 210.006C1143.23 207.827 1143.23 205.605 1143.26 203.405C1143.32 194.624 1143.36 185.587 1140.86 176.85C1137.59 164.544 1129.95 154.332 1119.83 148.97C1109.69 143.138 1096.55 141.407 1081.04 143.843C1069.51 145.702 1059.42 151.512 1053.4 159.802L1053.36 159.823ZM1078.37 227.204C1078.37 212.463 1078.37 197.722 1078.46 182.853C1078.37 179.371 1079.74 174.692 1083.72 172.876C1088.96 170.697 1095.4 170.462 1101.3 172.235C1105.41 173.453 1108.38 178.003 1108.13 182.917C1108.19 199.004 1108.17 215.197 1108.17 231.327C1108.17 240.962 1108.13 250.533 1108.17 260.147H1078.37C1078.37 249.166 1078.37 238.163 1078.37 227.182V227.204Z" fill="#FDFAF3"></path><path d="M1170.11 353.462C1175.65 353.419 1196.38 353.483 1196.42 353.483C1203.65 353.483 1221.79 352.778 1225.82 352.158C1236.23 350.663 1247.94 347.138 1256.86 338.721C1265.16 331.008 1269.67 319.13 1269.54 305.244C1269.59 267.922 1269.63 230.578 1269.54 193.192C1269.48 182.253 1267.1 167 1256.37 156.852C1244.79 145.914 1228.58 143.671 1215.61 142.966C1210.09 142.838 1204.25 142.773 1196.64 142.773L1176.55 142.838C1174.43 142.838 1172.29 142.838 1170.13 142.795C1169.27 142.795 1168.46 143.137 1167.86 143.735C1167.24 144.333 1166.9 145.166 1166.9 146.042V350.193C1166.9 351.048 1167.24 351.881 1167.86 352.5C1168.48 353.098 1169.27 353.376 1170.13 353.419L1170.11 353.462ZM1202.99 171.572C1203.65 171.593 1204.32 171.593 1204.96 171.593C1212.79 171.593 1220.81 171.657 1227.1 175.802C1231.04 178.301 1233.26 183.493 1233.07 189.731V221.263C1233.07 248.929 1233.11 276.617 1233.07 304.347C1233.11 307.252 1232.75 316.994 1225.69 321.203C1220.6 324.364 1214.46 324.642 1208.08 324.642H1202.99C1203.12 273.839 1203.12 222.396 1202.99 171.572Z" fill="#FDFAF3"></path><path d="M897.258 352.692C897.878 352.115 898.242 351.218 898.199 350.342C897.814 327.184 896.873 304.581 890.241 282.769C886.754 271.596 882.218 262.815 876.399 256.235C884.4 253.308 891.268 247.305 895.354 239.507C901.964 226.946 902.734 212.312 902.627 200.946C902.328 188.918 901.087 175.075 894.391 163.432C890.369 156.253 883.78 150.763 875.822 147.922C863.307 143.414 849.979 142.901 838.49 142.837H816.241C811.877 142.837 807.47 142.837 803.063 142.794C801.352 142.687 799.704 144.247 799.683 145.999C799.49 181.227 799.854 317.378 799.683 350.257C799.683 351.111 799.918 351.944 800.517 352.521C801.159 353.119 802.058 353.611 802.849 353.525H832.714C834.533 353.44 835.966 352.137 835.966 350.299C835.966 350.107 835.838 290.887 835.923 261.512C838.64 261.384 839.474 261.768 841.186 263.029C850.856 270.25 855.156 282.705 857.809 292.703C861.659 308.832 863.2 326.628 862.729 350.321C862.686 351.197 863.028 352.094 863.692 352.713C864.291 353.312 865.104 353.632 865.959 353.632H894.883C895.76 353.653 896.659 353.312 897.279 352.692H897.258ZM863.863 223.997C863.328 225.557 861.638 229.167 858.172 230.193C851.112 232.372 843.368 232.522 835.859 232.714V169.242H836.137C837.57 169.242 838.982 169.2 840.416 169.2C845.679 169.2 850.406 169.542 855.626 170.994C859.263 171.977 863.392 173.942 864.997 179.283C867.885 188.961 867.885 213.294 863.863 223.976V223.997Z" fill="#FDFAF3"></path><path d="M604.574 461.326H668.947V454.02H612.126V427.486H667.492V420.116H612.126V396.103H668.947V388.797H604.574V461.326Z" fill="#FDFAF3"></path><path d="M810.292 453.785L754.435 388.797H737.684V461.326H745.214V394.437H749.407L806.976 461.326H817.866V388.797H810.292V453.785Z" fill="#FDFAF3"></path><path d="M882.301 461.326H946.695V454.02H889.831V427.486H945.218V420.116H889.831V396.103H946.695V388.797H882.301V461.326Z" fill="#FDFAF3"></path><path d="M1089.97 409.584C1089.97 397.577 1083.06 388.797 1064.62 388.797H1012.31V461.326H1019.82V431.417H1069.88C1077.49 431.417 1081.26 434.237 1081.26 443.445V461.326H1088.79V444.321C1088.79 433.425 1084.38 428.085 1079.68 427.038C1084.7 424.111 1089.94 420.501 1089.94 409.584H1089.97ZM1066.95 424.09H1019.82V396.103H1067.46C1076.75 396.103 1082.41 401.337 1082.41 408.238C1082.41 420.116 1076.47 424.09 1066.93 424.09H1066.95Z" fill="#FDFAF3"></path><path d="M1179.75 461.326H1211.8C1232.72 461.326 1238.05 454.959 1238.05 432.463V426.823H1194.54V434.13H1230.18V436.544C1230.18 451.413 1225.41 454.019 1211.69 454.019H1179.67C1165.44 454.019 1160.52 450.046 1160.52 436.458V414.496C1160.52 399.884 1164.61 395.248 1179.67 395.248H1211.69C1225.88 395.248 1230.18 400.482 1230.18 408.686H1238.05C1238.05 395.248 1229.34 387.941 1211.8 387.941H1179.75C1160.29 387.941 1152.97 395.248 1152.97 414.496V436.458C1152.97 454.019 1159.45 461.304 1179.75 461.304V461.326Z" fill="#FDFAF3"></path><path d="M1336.63 420.778L1304.61 388.797H1294.68L1332.89 426.611V461.326H1340.42V426.76L1378.63 388.797H1368.68L1336.63 420.778Z" fill="#FDFAF3"></path><path d="M1468.28 49.9922H281.642C257.083 49.9922 237.059 69.9672 237.059 94.5354V469.51C237.059 494.035 257.083 514.01 281.642 514.01H1468.28C1492.84 514.01 1512.83 494.035 1512.83 469.51V94.5354C1512.83 69.9672 1492.82 49.9922 1468.28 49.9922ZM1487.92 469.51C1487.92 480.384 1479.15 489.164 1468.28 489.164H281.642C270.796 489.164 262.003 480.384 262.003 469.51V94.5354C262.003 83.6826 270.796 74.9022 281.642 74.9022H1468.28C1479.15 74.9022 1487.92 83.6613 1487.92 94.5354V469.51Z" fill="#FDFAF3"></path><path d="M564.696 281.957C564.696 269.994 560.011 258.735 551.539 250.275L314.095 13.1386C305.602 4.65727 294.327 0 282.326 0C270.324 0 259.05 4.65727 250.578 13.1386L13.1126 250.275C-4.36567 267.75 -4.36567 296.185 13.1126 313.682L150.179 450.559L150.115 450.602L250.535 550.883C259.007 559.364 270.303 564.021 282.283 564.021C294.263 564.021 305.559 559.343 314.031 550.883L416.184 448.871L551.517 313.704C560.011 305.222 564.696 293.964 564.696 281.979V281.957Z" fill="#1D1D1B"></path><path d="M386.193 130.512C392.932 128.76 399.393 127.158 405.383 125.748L396.269 116.668C392.568 117.031 385.123 117.843 375.09 119.445L386.193 130.533V130.512Z" fill="#FDFAF3"></path><path d="M292.94 127.093C303.765 122.008 315.424 117.394 326.698 113.313L298.395 85.0279C289.517 76.1834 275.162 76.1834 266.305 85.0279L85.104 265.957C76.2258 274.801 76.2258 289.136 85.104 297.981L231.969 444.642L251.672 464.318L266.284 478.909C275.162 487.754 289.495 487.754 298.374 478.909L312.985 464.318L332.667 444.642L479.553 297.981C488.432 289.136 488.432 274.801 479.553 265.957L369.87 156.425C362.618 157.899 355.365 159.566 348.156 161.488C238.793 190.586 169.18 236.282 169.18 236.282C169.18 236.282 228.931 179.968 332.261 146.299C339.449 143.949 346.402 141.812 353.183 139.783L340.069 126.666C329.886 129.208 319.04 132.37 307.936 136.279C249.148 157.023 216.352 181.527 216.352 181.527C216.352 181.527 241.574 151.191 292.918 127.114L292.94 127.093ZM222.235 370.638C212.266 367.242 203.58 358.461 203.366 348.442C256.229 367.37 307.53 325.091 312.942 318.746C314.633 316.781 314.697 325.732 311.616 331.65C301.39 351.433 276.745 367.049 258.283 370.895C247.436 373.138 232.076 373.993 222.235 370.66V370.638ZM325.586 323.339C333.138 325.048 340.133 330.731 341.759 338.294C345.246 354.445 329.672 381.448 282.093 383.499C272.702 383.927 262.454 383.585 255.694 378.094C297.668 376.15 331.17 352.693 325.586 323.339ZM278.735 426.312C281.024 432.059 289.068 432.529 294.523 431.162C290.137 435.263 286.586 440.241 285.388 450.795C269.471 453.252 257.812 428.812 265.77 414.37C263.075 408.58 266.519 403.175 266.519 403.175C280.553 411.806 296.641 417.062 312.13 406.786C311.231 417.382 296.298 426.782 278.756 426.312H278.735ZM298.245 403.731C288.362 404.329 268.231 400.548 264.166 389.524C304.15 402 337.63 380.573 343.257 368.78C342.102 369.763 345.032 400.975 298.245 403.752V403.731ZM346.166 289.585C323.853 306.847 255.78 349.04 193.29 342.78C171.469 340.58 150.075 326.48 161.606 306.27C179.341 327.121 217.379 323.767 258.71 313.768C341.481 293.729 369.036 260.979 369.036 260.979C369.036 260.979 369.207 271.768 346.145 289.585H346.166ZM170.078 252.733C176.325 248.951 177.052 249.272 171.533 253.053C161.542 259.911 155.253 266.704 155.659 272.43C156.9 290.503 219.924 282.941 272.252 272.622C303.658 266.427 337.138 253.523 358.018 241.41C342.808 248.289 315.938 257.945 274.884 264.461C234.771 270.827 206.96 271.639 190.338 271.447C182.743 271.362 177.951 264.931 187.984 259.633C201.975 252.284 226.385 242.286 266.134 234.125C343.513 218.273 366.383 227.929 372.009 231.796C377.015 227.459 379.54 223.55 378.47 220.559C374.683 209.877 320.623 211.372 280.168 215.966C273.023 216.777 277.13 215.261 280.061 214.727C328.196 206.267 387.99 200.84 391.862 223.315C395.97 247.135 327.533 286.06 258.86 298.087C190.188 310.115 141.967 304.475 144.791 279.437C145.797 270.678 155.616 261.406 170.078 252.711V252.733Z" fill="#FDFAF3"></path><path d="M540.802 260.979L427.931 148.265C421.021 148.863 413.747 149.611 406.238 150.551L518.66 262.774C529.228 273.37 529.228 290.568 518.66 301.164L374.94 444.643L355.258 464.318H355.279L301.518 518.005C290.928 528.602 273.685 528.602 263.074 518.005L209.313 464.318H209.398L189.717 444.643L46.0179 301.164C35.4069 290.568 35.4069 273.37 46.0179 262.774L263.096 45.9971C273.728 35.4008 290.95 35.4008 301.539 45.9971L358.424 102.782C365.89 100.517 372.308 98.6799 376.993 97.398L303.358 23.8644C291.741 12.2639 272.915 12.2639 261.299 23.8644L23.8331 260.979C12.2379 272.58 12.2379 291.358 23.8331 302.959L165.735 444.643L174.87 453.594C174.87 453.594 174.763 453.658 174.699 453.679L261.277 540.138C272.894 551.738 291.72 551.738 303.336 540.138L379.603 463.977L398.964 444.643L540.823 302.959C552.461 291.358 552.461 272.58 540.823 260.979H540.802Z" fill="#FDFAF3"></path><path d="M564.696 281.957C564.696 269.994 560.011 258.735 551.539 250.275L314.095 13.1386C305.602 4.65727 294.327 0 282.326 0C270.324 0 259.05 4.65727 250.578 13.1386L13.1126 250.275C-4.36567 267.75 -4.36567 296.185 13.1126 313.682L150.179 450.559L150.115 450.602L250.535 550.883C259.007 559.364 270.303 564.021 282.283 564.021C294.263 564.021 305.559 559.343 314.031 550.883L416.184 448.871L551.517 313.704C560.011 305.222 564.696 293.964 564.696 281.979V281.957ZM540.799 302.958L398.941 444.641L379.58 463.975L303.313 540.137C291.696 551.737 272.87 551.737 261.253 540.137L174.675 453.678C174.675 453.678 174.782 453.614 174.846 453.593L165.711 444.641L23.8307 302.958C12.2355 291.357 12.2355 272.579 23.8307 260.978L261.296 23.8632C272.913 12.2627 291.739 12.2627 303.355 23.8632L375.408 95.8373L540.799 261C552.437 272.6 552.437 291.379 540.799 302.979V302.958Z" fill="#1D1D1B"></path></svg> 